/* XPM */
static char *d446709d1fe4441b82e75f122085edecYGI7ozy8b7PwcUy1[] = {
/* columns rows colors chars-per-pixel */
"32 32 19 1 ",
"  c #000007",
". c #00000B",
"X c #00000E",
"o c #000010",
"O c #000014",
"+ c #151522",
"@ c #161625",
"# c #191928",
"$ c #19192B",
"% c #1B1B2B",
"& c #1B1B2E",
"* c #1D1D32",
"= c #202036",
"- c #28283A",
"; c #2E2E43",
": c #2F2F44",
"> c #313147",
", c #35354D",
"< c #3A3A54",
/* pixels */
"ooooooooooOOXXX.XXoooooooooOOooo",
"<,,,,==OO<<<<<<,<,,,*=<XX<<<<<<<",
"=*==**=OO<======**=***=oX===<<<=",
"=======OO==******=**==%X.===<<==",
"======%OO%=*==***%*%%=%.X=======",
"======%OO%======%%%%%%%.X=======",
"%%%%%%%OO%%%%%%%%%%%%%%XX=====@@",
"O.....XXXXXoooOOXXXXOOX..XXX..OO",
"XXOOoOOOooXoOooo.XX....XXXXooooo",
".<,,,<,,,,<<<<:oX<<,,,,<<<,,,,,O",
"X<===******==<<.X====<,,======,o",
"X%====*===***=<..%=====****===,X",
"o+==***=====*==OX%============*X",
"o+=**=====%%%==OX%%======%%%%%=X",
"X+%%%%%%%%%%%%%Oo%%%%%%%%%%%%%%X",
"XXXXooX.XXXXXOoooooo....XXooX.. ",
"OooO.XOoXOOOOXoXXXXXXXXXXX...XXo",
"<<<<<<<OX<,,,<,,,,<<<<<XX,,,,,,,",
"====%%=OX<==***==*===*,XX<===>,,",
"=&***%=oX===***=====**=X.<===*==",
"==&*=%=Oo===*=%=====*==XX===*===",
"==*%*%%oo%=**=%%%==*=%%XX===*===",
"==*%===XX%%%%%%%%###%%%.X%%%%%%%",
"XXXXooo.XXXo.X.XXX . .X..X .XXXO",
"..XXXXXXXooooooXoX.XX XXXXooooXX",
".,,<,,,<-<,,,<<o.,<,,<<:<,,,,<<O",
".,<<,===<,,<===o %**===<<*****=o",
"X,==*====*=*===X.%=============o",
"X=====%%**=%%%=XX%=========%%*=O",
"X%====**====*%%.o%======%%==%*=o",
"X%&%++@&%%%%%%+oO%%%%%%%%%%%%%%o",
"OooooooXooooooOoOXXXoooooooXXoOo"
};
