/* XPM */
static char *_9c7df1d75744dc7ff696d33dbb08d839GF7jyzFX0j1vJ5h[] = {
/* columns rows colors chars-per-pixel */
"32 32 16 1 ",
"  c #000007",
". c #00000A",
"X c #00000E",
"o c #000012",
"O c #000014",
"+ c #00001B",
"@ c #00001E",
"# c #1D3103",
"$ c #2B4805",
"% c #36570B",
"& c #3F6908",
"* c #6F6F62",
"= c #9D9D95",
"- c #A2A28F",
"; c #C8C9C1",
": c #E6E6DA",
/* pixels */
".XOXXXOOoOOOO@@@@@OOOOOOO@OOOOX.",
"X@:::::::::::::::&&&&&&&&&&%::O.",
"X:;;;;;::;;;;;:::&&&;%%&&&&:::=.",
"X;;;;;;;;;;;;;;;;;;&;;%%&&&;;;; ",
"X;;;;;;;;;;;;;;;;;;%;;;%&&&;;;;.",
"X%;-;;;;;;;;;;;;;;;%;;;%&&&;;;;.",
" &%-;;;;;;;-;;;;;%%%;;;%%&%%;;-.",
".&%%-;;;;;--;;;;%%;;;;;;%%%&;;-X",
"O%%%%;;;;--;;;;;;;;;;;;;;%%;;;-O",
"O&&&%%;;;;;;;;;;;;-;;;;;;;;;;;;O",
"O%&&&%%%%;;;;;;;;---;;;;;;;;;;;O",
"O%%&&&%%%%;;;;;;---;;;;;;;;;;--O",
"X%%&&&&&&%%--------------------O",
"X@%%%%%%&&%%%-------*******---@X",
" .OOOXOOXOXOOO .XoOOXooXX.o+ooo.",
"X...XXOOOO@OOX  .oXooooXOOXX.OoX",
"@O::::::::::::o .@::::::::::::@O",
"O=:;;;;;;;;;;:: X:;;;;;;:::;;;:O",
"O:;;;;;;;;;;;;;..;;;;;;;;;;;;;;O",
"O;;;;;;;;;;;;;;XX;;--;;;;;;;;;-O",
"O;;;;;;;;;;;;;;.o;;--;;;;;;;;;-O",
"O;;;;;;;;;;;;;;oO;;;--;;;;;;;;-O",
"X-;;;;;;;;;;;;;.X;;;;;;;;;;-;;-O",
"X-;;;;;---;;;;;XX;;;;;;;;;;-;;-O",
"X%%;;;--;;;;;;;XX--;;;;;;;;;;;;O",
"X%%%;;;;;;;;;;;Xo;-;;;;--;;;;;&O",
"X&&%;;;;;;;;--;OO;-;;;;;--;&&&&O",
".$&%%;;;;;;---;XX;;;;;;---;;&&%O",
"O$&%%%;;;;;----oX;;;;;-----&&&%O",
"X#&%%%&--;;----..;;-------&&%%%O",
"X.$&%%%%------@XO@-----%%%%&%%OO",
"..XXOOOO@OXOXXX..XXOXXXX . XXX X"
};
